<?xml version="1.0" encoding="UTF-8" standalone="no"?>
<svg
   height="256"
   viewBox="0 0 256 256"
   width="256"
   version="1.1"
   id="svg2"
   sodipodi:docname="icon.svg"
   inkscape:version="1.3.2 (091e20e, 2023-11-25, custom)"
   xmlns:inkscape="http://www.inkscape.org/namespaces/inkscape"
   xmlns:sodipodi="http://sodipodi.sourceforge.net/DTD/sodipodi-0.dtd"
   xmlns="http://www.w3.org/2000/svg"
   xmlns:svg="http://www.w3.org/2000/svg">
  <defs
     id="defs2" />
  <sodipodi:namedview
     id="namedview2"
     pagecolor="#505050"
     bordercolor="#eeeeee"
     borderopacity="1"
     inkscape:showpageshadow="0"
     inkscape:pageopacity="0"
     inkscape:pagecheckerboard="0"
     inkscape:deskcolor="#505050"
     inkscape:zoom="2.1640625"
     inkscape:cx="93.574007"
     inkscape:cy="109.74729"
     inkscape:window-width="1920"
     inkscape:window-height="1027"
     inkscape:window-x="-8"
     inkscape:window-y="100"
     inkscape:window-maximized="1"
     inkscape:current-layer="g2" />
  <g
     fill="#494c4e"
     id="g2">
    <path
       d="M 222.93332,37.333339 H 33.066668 C 14.933333,37.333339 0,52.266669 0,70.400005 0,80.000003 4.2666668,89.600001 11.733333,96.000003 V 174.93333 C 11.733333,198.4 32,218.66666 56.533332,218.66666 H 198.39999 c 24.53333,0 44.79999,-20.26666 44.79999,-44.8 V 96.000003 C 251.73332,89.600001 256,80.000003 256,70.400005 256,52.266669 241.06666,37.333339 222.93332,37.333339 Z m 0,136.533321 c 0,12.80001 -10.66666,23.46667 -23.46666,23.46667 H 56.533332 c -12.799998,0 -23.466664,-10.66666 -23.466664,-23.46667 V 103.46667 H 222.93332 Z m 0,-91.733327 H 33.066668 c -6.400002,0 -11.733334,-5.333334 -11.733334,-11.733328 0,-6.400002 5.333332,-11.733336 11.733334,-11.733336 H 222.93332 c 6.40002,0 11.73334,5.333334 11.73334,11.733336 0,6.399994 -5.33332,11.733328 -11.73334,11.733328 z"
       id="path1"
       style="stroke-width:10.6667" />
    <path
       d="M 106.66667,167.46667 H 64 C 57.599998,167.46667 53.333332,163.2 53.333332,156.8 V 135.46667 C 53.333332,129.06667 57.599998,124.8 64,124.8 h 42.66667 c 6.39999,0 10.66666,4.26667 10.66666,10.66667 V 156.8 c 0,5.33333 -4.26667,10.66667 -10.66666,10.66667 z"
       id="path2"
       style="stroke-width:10.6667" />
  </g>
</svg>
